<svg xmlns="http://www.w3.org/2000/svg" viewBox="0 0 137 47" preserveAspectRatio="xMidYMid meet"><path d="M0 0h137v47H0z"/><path fill="#FFF" d="M44.78 16.54c-.18-.37-.67-.67-1.09-.67h-.84c-.41 0-.9.31-1.08.68L35.08 30.5c-.19.37.02.63.43.63h1.54c.61 0 .89-.28 1.05-.62.17-.34.53-1.08.6-1.23.1-.2.39-.33.8-.33h7.19c.41 0 .68.08.8.32.08.16.45.82.63 1.19.18.36.49.66 1.08.66h2.24c.41 0 .6-.31.45-.61-.13-.27-7.11-13.97-7.11-13.97zm-4.23 10.27c-.41 0-.61-.31-.43-.68l2.63-5.64c.18-.38.46-.37.63 0l2.56 5.64c.17.38-.03.68-.44.68h-4.95zm55.87-10.16V30.5c0 .38.34.64.75.64H99c.41 0 .75-.26.75-.68V16.62c0-.41-.27-.75-.68-.75h-1.9c-.42-.01-.75.25-.75.78zm-30.61 8.67c-.24-.34-.11-.71.29-.83 0 0 1.58-.47 2.33-1.15.76-.68 1.14-1.66 1.14-2.94 0-.84-.15-1.54-.44-2.11a3.56 3.56 0 0 0-1.25-1.39c-.54-.36-1.19-.62-1.95-.79-.76-.16-1.78-.21-1.78-.21-.41-.02-1.09-.03-1.5-.03h-7.58c-.41 0-.75.34-.75.75v13.84c0 .41.34.68.75.68h1.79c.41 0 .75-.26.75-.68v-5.5s.01 0 .01-.01l3.4-.01c.41 0 .95.28 1.19.62l3.53 4.97c.33.44.64.61 1.05.61h2.35c.41 0 .48-.39.34-.59-.14-.21-3.67-5.23-3.67-5.23zm-1.43-2.81c-.46.11-.99.13-.99.13-.41.02-1.09.03-1.5.03h-3.52c-.41 0-.75-.34-.75-.75v-2.8c0-.41.34-.75.75-.75h3.52c.41 0 1.09.01 1.5.03 0 0 .52.02.99.13.46.11.83.26 1.1.45.27.19.46.42.58.68.12.26.17.55.17.86 0 .31-.06.6-.17.86-.12.26-.31.49-.58.68-.26.19-.63.34-1.1.45zm54.46-6.65c-.41 0-.75.27-.75.67v8.85c0 .41-.23.51-.52.21l-8.87-9.19c-.29-.3-.71-.54-1.28-.54h-1.67c-.52 0-.75.28-.75.56v14.16c0 .28.27.55.68.55h1.67c.41 0 .7-.23.7-.61l.01-9.33c0-.41.23-.51.52-.21l9.24 9.61c.29.29.65.53 1.28.53h1.25c.41 0 .75-.34.75-.75V16.62c0-.41-.34-.75-.75-.75h-1.51zM82.69 24.5c-.2.36-.53.36-.73 0l-4.33-7.96c-.18-.37-.56-.67-1.09-.67h-2.35c-.41 0-.75.34-.75.75v13.82c0 .41.27.7.75.7h1.46c.41 0 .71-.26.71-.66 0-.19.01-10.05.02-10.05.02 0 5.41 10.05 5.41 10.05.2.36.67.37.87 0 0 0 5.44-10.02 5.45-10.02.02 0 .01 9.74.01 10.02 0 .4.32.66.73.66h1.68c.41 0 .75-.21.75-.75V16.62c0-.41-.34-.75-.75-.75h-2.25c-.58 0-.92.29-1.13.65l-4.46 7.98zm-66.82-1.01c0 7.46 7.63 7.84 9.16 7.84 5.06 0 7.2-1.37 7.29-1.43.32-.18.7-.54.7-1.22v-5.15c0-.47-.39-.86-.86-.86H25.8c-.48 0-.79.39-.79.86v.53c0 .48.31.86.79.86h3.68c.36 0 .64.29.64.64v2.4c-.73.3-4.04 1.26-6.7.63-3.86-.92-4.16-4.1-4.16-5.06 0-.8.24-4.81 4.98-5.21 3.84-.33 6.36 1.22 6.39 1.24.45.23.92.07 1.17-.41l.48-.97c.2-.4.13-.81-.35-1.14-.03-.02-2.72-1.48-6.89-1.48-8.91.01-9.17 7.12-9.17 7.93zm108.99 4.47a1.741 1.741 0 0 1 0 3.48 1.741 1.741 0 0 1 0-3.48zm.01 3.22c.8 0 1.4-.65 1.4-1.48s-.6-1.48-1.4-1.48c-.81 0-1.41.65-1.41 1.48-.01.83.6 1.48 1.41 1.48zm-.67-2.5h.78c.47 0 .7.19.7.57 0 .33-.21.56-.53.56l.58.9h-.35l-.57-.9h-.28v.9h-.33v-2.03zm.33.87h.4c.26 0 .42-.05.42-.32 0-.23-.21-.3-.42-.3h-.4v.62z"/></svg>