<?xml version="1.0" encoding="UTF-8"?>
<svg id="Layer_1" xmlns="http://www.w3.org/2000/svg" version="1.1" viewBox="0 0 199 37">
  <!-- Generator: Adobe Illustrator 30.0.0, SVG Export Plug-In . SVG Version: 2.1.1 Build 123)  -->
  <defs>
    <style>
      .st0 {
        fill: #fc5200;
        fill-rule: evenodd;
      }
    </style>
  </defs>
  <path class="st0" d="M109.9,35.6h0s10.1,0,10.1,0l6.2-12.4,6.2,12.4h12.2L126.2,0l-17.5,33.8-6.7-9.8c4.1-2,6.7-5.5,6.7-10.4h0c0-3.6-1.1-6.1-3.1-8.2-2.4-2.4-6.2-3.9-12.3-3.9h-16.7v34.2h11.4v-9.8h2.4l6.4,9.8h13ZM180.4,0l-18.4,35.6h12.2l6.2-12.4,6.2,12.4h12.2L180.4,0ZM153.3,37L171.7,1.4h-12.2l-6.2,12.4-6.2-12.4h-12.2l18.4,35.6ZM92.9,17.7c2.7,0,4.4-1.2,4.4-3.3h0c0-2.3-1.7-3.4-4.3-3.4h-5v6.7h4.9ZM52.2,11.1h-10.1V1.4h31.5v9.7h-10.1v24.5h-11.4V11.1ZM14.3,23.2l-6.1,7.3c4.3,3.8,10.6,5.8,17.5,5.8s15.1-4.4,15.1-11.6h0c0-7-5.9-9.5-14.6-11.1-3.6-.7-4.5-1.3-4.5-2.2h0c0-.9.8-1.5,2.5-1.5,3.2,0,7,1,10.2,3.4l5.6-7.7c-4-3.1-8.8-4.7-15.4-4.7-9.4,0-14.5,5-14.5,11.5h0c0,7.3,6.7,9.5,14.4,11.1,3.7.7,4.7,1.3,4.7,2.2h0c0,1-.9,1.6-2.9,1.6-4,0-8.2-1.2-12-4Z"/>
</svg>