<svg width="200" height="32" viewBox="0 0 200 32" fill="none" xmlns="http://www.w3.org/2000/svg">
<path d="M197.149 0.745055C196.851 0.752052 196.557 0.818716 196.285 0.941113C196.013 1.06351 195.768 1.23916 195.565 1.45769C195.14 1.87614 194.895 2.44468 194.884 3.04132C194.864 3.35224 194.907 3.66402 195.01 3.95793C195.114 4.25184 195.276 4.52182 195.486 4.75164C195.903 5.17852 196.473 5.42326 197.07 5.43261C197.367 5.42854 197.66 5.36476 197.932 5.24506C198.204 5.12536 198.449 4.95217 198.653 4.73581C198.894 4.54546 199.094 4.3085 199.241 4.0391C199.388 3.76971 199.479 3.47343 199.508 3.16801C199.491 2.56948 199.241 2.00122 198.812 1.58438C198.611 1.33303 198.359 1.12791 198.072 0.983056C197.785 0.838199 197.47 0.757015 197.149 0.745055ZM199.999 3.16801C200.008 3.55181 199.936 3.93319 199.789 4.28771C199.642 4.64224 199.422 4.96208 199.144 5.22673C198.609 5.74352 197.892 6.02812 197.149 6.01855C196.772 6.02697 196.399 5.95824 196.05 5.81662C195.701 5.67499 195.385 5.46346 195.122 5.19506C194.854 4.93076 194.643 4.61473 194.501 4.26624C194.36 3.91775 194.291 3.54409 194.298 3.16801C194.291 2.77922 194.367 2.39336 194.52 2.03581C194.672 1.67825 194.899 1.3571 195.185 1.09345C195.719 0.600113 196.421 0.328379 197.149 0.333311C197.525 0.326745 197.898 0.396316 198.246 0.537838C198.595 0.679359 198.911 0.889904 199.176 1.1568C199.442 1.4187 199.653 1.73205 199.794 2.07779C199.936 2.42354 200.005 2.79446 199.999 3.16801ZM197.671 2.58207C197.67 2.50299 197.646 2.42604 197.6 2.36112C197.555 2.2962 197.492 2.2463 197.418 2.21783C197.255 2.19606 197.09 2.19606 196.927 2.21783H196.737V3.00965H197.054C197.21 3.02238 197.365 2.98343 197.497 2.89879C197.555 2.85465 197.601 2.79687 197.632 2.73058C197.662 2.66428 197.676 2.59151 197.671 2.51872V2.58207ZM195.898 4.75164V1.58438H197.481C197.697 1.58755 197.908 1.64183 198.099 1.74274C198.235 1.81098 198.349 1.91799 198.425 2.05039C198.501 2.18279 198.536 2.33468 198.526 2.48705C198.534 2.59496 198.519 2.70329 198.48 2.80448C198.442 2.90568 198.382 2.99731 198.305 3.07299C198.145 3.19518 197.952 3.26686 197.75 3.27887C197.915 3.31086 198.071 3.37548 198.21 3.4689C198.304 3.55711 198.378 3.66565 198.424 3.78635C198.471 3.90705 198.49 4.03676 198.479 4.1657V4.45075C198.472 4.48199 198.472 4.51453 198.479 4.54577C198.472 4.57701 198.472 4.60955 198.479 4.64079V4.73581H197.687C197.666 4.58873 197.666 4.43947 197.687 4.29239C197.695 4.16583 197.695 4.03888 197.687 3.91232C197.66 3.84498 197.617 3.78523 197.562 3.7383C197.507 3.69136 197.441 3.65868 197.37 3.6431C197.277 3.6225 197.179 3.6225 197.085 3.6431H196.737V4.75164H195.898Z" fill="black"/>
<path fill-rule="evenodd" clip-rule="evenodd" d="M102.891 0.0020579C98.6709 -0.0657342 94.5964 1.54378 91.562 4.47727C88.5275 7.41075 86.7811 11.4285 86.7062 15.6483C86.8906 19.8169 88.6764 23.7536 91.6914 26.6382C94.7064 29.5227 98.7182 31.1328 102.891 31.1328C107.064 31.1328 111.075 29.5227 114.09 26.6382C117.105 23.7536 118.891 19.8169 119.076 15.6483C118.996 11.4298 117.249 7.41456 114.215 4.48196C111.182 1.54937 107.11 -0.0615334 102.891 0.0020579ZM102.891 27.6048C99.6663 27.6556 96.5533 26.4254 94.2346 24.1839C91.9159 21.9424 90.581 18.8728 90.5227 15.6483C90.5227 12.3681 91.8258 9.22221 94.1453 6.90273C96.4648 4.58325 99.6106 3.28018 102.891 3.28018C106.171 3.28018 109.317 4.58325 111.636 6.90273C113.956 9.22221 115.259 12.3681 115.259 15.6483C115.201 18.8728 113.866 21.9424 111.547 24.1839C109.229 26.4254 106.115 27.6556 102.891 27.6048ZM51.6762 0.0020579H55.6195V31.2946H51.6762V0.0020579ZM59.5944 13.748H70.949V17.5645H59.5944V13.748ZM78.8672 0.0020579H74.9239V31.2946H78.8672V0.0020579ZM166.727 0.0020579H170.686V31.2946H166.727V0.0020579ZM174.645 0.0020579H179.95C181.379 -0.0252348 182.799 0.229226 184.13 0.750904C185.46 1.27258 186.675 2.05126 187.704 3.04245C188.734 4.03364 189.558 5.21793 190.129 6.52767C190.701 7.83741 191.009 9.24694 191.036 10.6757C191.009 12.1045 190.701 13.5141 190.129 14.8238C189.558 16.1335 188.734 17.3178 187.704 18.309C186.675 19.3002 185.46 20.0789 184.13 20.6006C182.799 21.1222 181.379 21.3767 179.95 21.3494H174.661V17.6437H179.95C181.829 17.6734 183.643 16.9563 184.994 15.65C186.345 14.3436 187.123 12.5547 187.156 10.6757C187.118 8.79958 186.339 7.01467 184.989 5.71172C183.638 4.40876 181.827 3.6939 179.95 3.72359H174.661L174.645 0.0020579ZM126.012 15.6483C126.196 11.4798 127.982 7.54308 130.997 4.65851C134.012 1.77394 138.024 0.163932 142.197 0.163932C146.369 0.163932 150.381 1.77394 153.396 4.65851C156.411 7.54308 158.197 11.4798 158.381 15.6483C158.197 19.8169 156.411 23.7536 153.396 26.6382C150.381 29.5227 146.369 31.1328 142.197 31.1328C138.024 31.1328 134.012 29.5227 130.997 26.6382C127.982 23.7536 126.196 19.8169 126.012 15.6483ZM129.828 15.6483C129.828 18.9349 131.134 22.0868 133.458 24.4108C135.782 26.7347 138.934 28.0403 142.22 28.0403C145.507 28.0403 148.659 26.7347 150.983 24.4108C153.307 22.0868 154.612 18.9349 154.612 15.6483C154.612 12.3681 153.309 9.22221 150.99 6.90273C148.67 4.58325 145.524 3.28018 142.244 3.28018C138.964 3.28018 135.818 4.58325 133.499 6.90273C131.179 9.22221 129.876 12.3681 129.876 15.6483H129.828ZM24.4219 11.8318L30.5506 31.2946H34.383L44.2332 0.0020579H40.4008L32.4826 25.1976L28.2543 11.8318H24.4219ZM1 0.0020579L7.12866 19.4649H10.961L4.83239 0.0020579H1ZM10.8502 31.2946L20.7004 0.0020579H24.5328L14.6826 31.2946H10.8502Z" fill="black"/>
</svg>
